<svg width="20" height="20" viewBox="0 0 20 20" fill="none" xmlns="http://www.w3.org/2000/svg">
<g clip-path="url(#clip0_143_107)">
<path d="M10 9.99988C10.9889 9.99988 11.9556 9.70663 12.7779 9.15723C13.6001 8.60782 14.241 7.82693 14.6194 6.9133C14.9978 5.99967 15.0969 4.99433 14.9039 4.02443C14.711 3.05452 14.2348 2.16361 13.5355 1.46435C12.8363 0.765084 11.9454 0.28888 10.9755 0.0959538C10.0055 -0.0969723 9.00021 0.00204436 8.08658 0.380483C7.17295 0.758921 6.39206 1.39978 5.84265 2.22203C5.29324 3.04427 5 4.01097 5 4.99988C5.00132 6.32556 5.52853 7.59656 6.46593 8.53395C7.40332 9.47135 8.67432 9.99856 10 9.99988ZM10 1.66655C10.6593 1.66655 11.3037 1.86204 11.8519 2.22831C12.4001 2.59459 12.8273 3.11518 13.0796 3.72427C13.3319 4.33336 13.3979 5.00358 13.2693 5.65018C13.1407 6.29678 12.8232 6.89073 12.357 7.3569C11.8908 7.82308 11.2969 8.14055 10.6503 8.26917C10.0037 8.39778 9.33348 8.33177 8.72439 8.07948C8.1153 7.82719 7.59471 7.39994 7.22843 6.85178C6.86216 6.30362 6.66667 5.65915 6.66667 4.99988C6.66667 4.11583 7.01786 3.26798 7.64298 2.64286C8.2681 2.01774 9.11594 1.66655 10 1.66655Z" fill="white"/>
<path d="M10 11.6666C8.01155 11.6688 6.10518 12.4597 4.69914 13.8658C3.29309 15.2718 2.50221 17.1782 2.5 19.1666C2.5 19.3876 2.5878 19.5996 2.74408 19.7559C2.90036 19.9122 3.11232 20 3.33333 20C3.55435 20 3.76631 19.9122 3.92259 19.7559C4.07887 19.5996 4.16667 19.3876 4.16667 19.1666C4.16667 17.6195 4.78125 16.1358 5.87521 15.0418C6.96917 13.9479 8.4529 13.3333 10 13.3333C11.5471 13.3333 13.0308 13.9479 14.1248 15.0418C15.2188 16.1358 15.8333 17.6195 15.8333 19.1666C15.8333 19.3876 15.9211 19.5996 16.0774 19.7559C16.2337 19.9122 16.4457 20 16.6667 20C16.8877 20 17.0996 19.9122 17.2559 19.7559C17.4122 19.5996 17.5 19.3876 17.5 19.1666C17.4978 17.1782 16.7069 15.2718 15.3009 13.8658C13.8948 12.4597 11.9884 11.6688 10 11.6666Z" fill="white"/>
</g>
<defs>
<clipPath id="clip0_143_107">
<rect width="20" height="20" fill="white"/>
</clipPath>
</defs>
</svg>
