<svg width="16" height="16" viewBox="0 0 16 16" fill="none" xmlns="http://www.w3.org/2000/svg">
<path d="M11 12H10.6667V3C10.6667 1.346 9.32067 0 7.66667 0H3C1.346 0 0 1.346 0 3V13.6667C0 14.9533 1.046 15.9993 2.332 16H10.6667C11.7693 16 12.6667 15.1027 12.6667 14V13.6667C12.6667 12.7473 11.9193 12 11 12ZM3.33333 13.6667C3.33333 14.218 2.88467 14.6667 2.33333 14.6667C1.782 14.6667 1.33333 14.218 1.33333 13.6667V3C1.33333 2.08067 2.08067 1.33333 3 1.33333H7.66667C8.586 1.33333 9.33333 2.08067 9.33333 3V12H5C4.08067 12 3.33333 12.7473 3.33333 13.6667ZM11.3333 14C11.3333 14.368 11.0347 14.6667 10.6667 14.6667H4.44133C4.586 14.3633 4.66667 14.024 4.66667 13.6667C4.66667 13.4833 4.81667 13.3333 5 13.3333H11C11.1833 13.3333 11.3333 13.4833 11.3333 13.6667V14ZM14 0C12.8973 0 12 0.897333 12 2V8.89533C12 9.786 12.3473 10.6233 12.9767 11.2527L13.5287 11.8047C13.6587 11.9347 13.8293 12 14 12C14.1707 12 14.3413 11.9347 14.4713 11.8047L15.0233 11.2527C15.6527 10.6233 16 9.786 16 8.89533V2C16 0.897333 15.1027 0 14 0ZM14.6667 8.89533C14.6667 9.43 14.458 9.93267 14.0807 10.31L14 10.3907L13.9193 10.31C13.542 9.93267 13.3333 9.43 13.3333 8.89533V2C13.3333 1.632 13.632 1.33333 14 1.33333C14.368 1.33333 14.6667 1.632 14.6667 2V8.89533ZM2.19533 4.73133C1.93467 4.47067 1.93467 4.04867 2.19533 3.78867C2.456 3.528 2.87733 3.528 3.138 3.78867L3.99667 4.648C4.01867 4.67 4.06667 4.67 4.08933 4.648L5.542 3.19533C5.80267 2.93467 6.224 2.93467 6.48467 3.19533C6.74533 3.456 6.74533 3.87733 6.48467 4.138L5.032 5.59067C4.75933 5.86333 4.40133 5.99933 4.04333 5.99933C3.68533 5.99933 3.32733 5.86333 3.05467 5.59067L2.19533 4.73133ZM5.032 9.59067C4.75933 9.86333 4.40133 9.99933 4.04333 9.99933C3.68533 9.99933 3.32733 9.86333 3.05467 9.59067L2.196 8.73133C1.93533 8.47067 1.93533 8.04867 2.196 7.78867C2.45667 7.528 2.878 7.528 3.13867 7.78867L3.99733 8.648C4.01933 8.67 4.06733 8.67 4.09 8.648L5.54267 7.19533C5.80333 6.93467 6.22467 6.93467 6.48533 7.19533C6.746 7.456 6.746 7.87733 6.48533 8.138L5.032 9.59067Z" fill="white"/>
</svg>
