<svg width="19" height="20" viewBox="0 0 19 20" fill="none" xmlns="http://www.w3.org/2000/svg">
<path d="M18.7958 11.3849L17.2125 5.68828C16.7484 4.01939 15.7398 2.55352 14.3469 1.52367C12.9541 0.493823 11.257 -0.0408992 9.52537 0.00450091C7.79375 0.049901 6.12699 0.672818 4.79004 1.77424C3.45308 2.87565 2.52266 4.39236 2.14665 6.08328L0.920818 11.5958C0.785414 12.2049 0.788545 12.8366 0.929979 13.4444C1.07141 14.0521 1.34754 14.6203 1.73797 15.1071C2.1284 15.5938 2.62317 15.9866 3.18574 16.2566C3.74832 16.5265 4.36434 16.6666 4.98832 16.6666H5.91665C6.10791 17.6085 6.61893 18.4553 7.3631 19.0636C8.10728 19.6718 9.03885 20.0041 9.99998 20.0041C10.9611 20.0041 11.8927 19.6718 12.6369 19.0636C13.381 18.4553 13.8921 17.6085 14.0833 16.6666H14.7817C15.424 16.6667 16.0576 16.5182 16.6331 16.2328C17.2086 15.9474 17.7103 15.5329 18.099 15.0215C18.4877 14.5101 18.753 13.9158 18.874 13.285C18.995 12.6541 18.9677 12.0039 18.7958 11.3849ZM9.99998 18.3333C9.48477 18.3311 8.98279 18.1699 8.56274 17.8715C8.14268 17.5732 7.82505 17.1524 7.65332 16.6666H12.3467C12.1749 17.1524 11.8573 17.5732 11.4372 17.8715C11.0172 18.1699 10.5152 18.3311 9.99998 18.3333ZM16.7717 14.0124C16.5394 14.3205 16.2386 14.5702 15.893 14.7416C15.5474 14.913 15.1666 15.0015 14.7808 14.9999H4.98832C4.61397 14.9999 4.24442 14.9157 3.90694 14.7538C3.56945 14.5918 3.27266 14.3561 3.03845 14.064C2.80425 13.772 2.63862 13.4311 2.55379 13.0665C2.46895 12.7019 2.46709 12.3229 2.54832 11.9574L3.77332 6.44411C4.06861 5.11595 4.79941 3.92462 5.84953 3.05949C6.89966 2.19436 8.20884 1.70509 9.56896 1.66946C10.9291 1.63383 12.2621 2.05388 13.3561 2.86284C14.4501 3.6718 15.2422 4.82323 15.6067 6.13411L17.19 11.8308C17.2946 12.2019 17.3113 12.5923 17.2386 12.9711C17.166 13.3498 17.0061 13.7063 16.7717 14.0124Z" fill="black"/>
</svg>
