<svg width="16" height="16" viewBox="0 0 16 16" fill="none" xmlns="http://www.w3.org/2000/svg">
<path d="M8 16C3.58867 16 0 12.4113 0 8C0 3.58867 3.58867 0 8 0C12.4113 0 16 3.58867 16 8C16 12.4113 12.4113 16 8 16ZM8 1.33333C4.324 1.33333 1.33333 4.324 1.33333 8C1.33333 11.676 4.324 14.6667 8 14.6667C11.676 14.6667 14.6667 11.676 14.6667 8C14.6667 4.324 11.676 1.33333 8 1.33333ZM11.3333 8C11.3333 7.63133 11.0353 7.33333 10.6667 7.33333H8.66667V4C8.66667 3.63133 8.368 3.33333 8 3.33333C7.632 3.33333 7.33333 3.63133 7.33333 4V8C7.33333 8.36867 7.632 8.66667 8 8.66667H10.6667C11.0353 8.66667 11.3333 8.36867 11.3333 8Z" fill="white"/>
</svg>
