<svg width="21" height="20" viewBox="0 0 21 20" fill="none" xmlns="http://www.w3.org/2000/svg">
<path d="M19.7675 7.55751L13.4467 1.23584C12.6644 0.455835 11.6047 0.0178223 10.5 0.0178223C9.39529 0.0178223 8.33564 0.455835 7.55334 1.23584L1.23251 7.55751C0.999531 7.789 0.814818 8.06443 0.689079 8.36783C0.563339 8.67124 0.499075 8.99658 0.50001 9.32501V17.5058C0.50001 18.1689 0.763402 18.8048 1.23224 19.2736C1.70108 19.7425 2.33697 20.0058 3.00001 20.0058H18C18.663 20.0058 19.2989 19.7425 19.7678 19.2736C20.2366 18.8048 20.5 18.1689 20.5 17.5058V9.32501C20.5009 8.99658 20.4367 8.67124 20.3109 8.36783C20.1852 8.06443 20.0005 7.789 19.7675 7.55751ZM13 18.3392H8.00001V15.0608C8.00001 14.3978 8.2634 13.7619 8.73224 13.2931C9.20108 12.8242 9.83697 12.5608 10.5 12.5608C11.1631 12.5608 11.7989 12.8242 12.2678 13.2931C12.7366 13.7619 13 14.3978 13 15.0608V18.3392ZM18.8333 17.5058C18.8333 17.7269 18.7455 17.9388 18.5893 18.0951C18.433 18.2514 18.221 18.3392 18 18.3392H14.6667V15.0608C14.6667 13.9558 14.2277 12.896 13.4463 12.1146C12.6649 11.3332 11.6051 10.8942 10.5 10.8942C9.39494 10.8942 8.33513 11.3332 7.55373 12.1146C6.77233 12.896 6.33334 13.9558 6.33334 15.0608V18.3392H3.00001C2.779 18.3392 2.56703 18.2514 2.41075 18.0951C2.25447 17.9388 2.16668 17.7269 2.16668 17.5058V9.32501C2.16745 9.10416 2.25517 8.8925 2.41084 8.73584L8.73168 2.41668C9.20143 1.94912 9.83723 1.68663 10.5 1.68663C11.1628 1.68663 11.7986 1.94912 12.2683 2.41668L18.5892 8.73834C18.7442 8.89438 18.8319 9.10503 18.8333 9.32501V17.5058Z" fill="white"/>
</svg>
