<svg width="12" height="12" viewBox="0 0 12 12" fill="none" xmlns="http://www.w3.org/2000/svg">
<path d="M6.99999 12C6.89181 12 6.78654 11.9649 6.69999 11.9L4.69999 10.4C4.63789 10.3534 4.58749 10.293 4.55278 10.2236C4.51806 10.1542 4.49999 10.0776 4.49999 10V7.19L0.99199 3.2435C0.74285 2.96244 0.58018 2.61541 0.52353 2.24412C0.466881 1.87283 0.518662 1.49308 0.672652 1.15051C0.826641 0.807938 1.07629 0.517129 1.39158 0.313033C1.70688 0.108936 2.0744 0.000237209 2.44999 0L9.54999 0C9.92554 0.000440525 10.293 0.10932 10.6081 0.313553C10.9233 0.517787 11.1728 0.808686 11.3266 1.15129C11.4805 1.4939 11.5321 1.87364 11.4753 2.24487C11.4185 2.61611 11.2557 2.96305 11.0065 3.244L7.49999 7.19V11.5C7.49999 11.6326 7.44731 11.7598 7.35354 11.8536C7.25978 11.9473 7.1326 12 6.99999 12ZM5.49999 9.75L6.49999 10.5V7C6.50009 6.87758 6.5451 6.75945 6.62649 6.668L10.2605 2.5795C10.3817 2.44254 10.4607 2.27352 10.4882 2.09273C10.5157 1.91193 10.4904 1.72705 10.4154 1.56028C10.3404 1.39351 10.2188 1.25193 10.0653 1.15254C9.91179 1.05316 9.73286 1.00019 9.54999 1H2.44999C2.26722 1.00028 2.0884 1.05327 1.93499 1.15263C1.78158 1.25199 1.66009 1.3935 1.58509 1.56018C1.51009 1.72685 1.48477 1.91163 1.51215 2.09234C1.53954 2.27305 1.61847 2.44203 1.73949 2.579L5.37399 6.668C5.4552 6.75952 5.50003 6.87764 5.49999 7V9.75Z" fill="black"/>
</svg>
